# xmcd CD database file
#
# Track frame offsets:
#	150
#	25469
#	65520
#	115093
#	146789
#	185645
#	206071
#	248824
#
# Disc length: 3745 seconds
#
# Revision: 0
# Processed by: cddbd v1.5.2PL0 Copyright (c) Steve Scherf et al.
# Submitted via: CDex 1.70beta2
#
DISCID=7a0e9f08
DTITLE=Dena Derose - Live At Jazz Standard Volume Two
DYEAR=2008
DGENRE=Jazz
TTITLE0=The ruby and the pearl
TTITLE1=When lights are low
TTITLE2=Detour ahead
TTITLE3=I fall in love too easily
TTITLE4=In your own sweet way
TTITLE5=I can't escape from you
TTITLE6=Laughing at life
TTITLE7=We'll be together again
EXTD=YEAR: 2008
EXTT0=
EXTT1=
EXTT2=
EXTT3=
EXTT4=
EXTT5=
EXTT6=
EXTT7=
PLAYORDER=
